<?xml version="1.0" encoding="UTF-8"?>
<svg width="452px" height="47px" viewBox="0 0 452 47" version="1.1" xmlns="http://www.w3.org/2000/svg" xmlns:xlink="http://www.w3.org/1999/xlink">
    <title>矩形备份 8</title>
    <defs>
        <linearGradient x1="52.5063697%" y1="108.021361%" x2="52.5063697%" y2="50%" id="linearGradient-1">
            <stop stop-color="#00EAFF" offset="0%"></stop>
            <stop stop-color="#D6FCFF" offset="100%"></stop>
        </linearGradient>
        <path d="M10.464,21.072 L7.632,10.656 L11.712,10.656 L8.832,0 L1.248,0 L4.08,10.416 L0,10.416 L2.88,21.072 L10.464,21.072 Z M44.208,22.848 L41.328,10.416 L33.744,10.416 L35.376,17.424 L23.184,18.576 C22.992,18.608 22.824,18.56 22.68,18.432 C22.536,18.304 22.496,18.128 22.56,17.904 L22.56,17.904 L24.912,7.392 L44.592,7.392 L44.592,4.704 L33.024,4.704 L31.296,0.144 L23.712,0.144 L25.44,4.704 L13.296,4.704 L13.296,7.392 L17.328,7.392 L14.688,18.528 C14.56,19.04 14.552,19.512 14.664,19.944 C14.776,20.376 14.968,20.744 15.24,21.048 C15.512,21.352 15.856,21.584 16.272,21.744 C16.688,21.904 17.152,21.952 17.664,21.888 L17.664,21.888 L36,20.064 L36.624,22.848 L44.208,22.848 Z M7.584,45.12 L9.792,26.88 C9.856,26.464 10.08,26.144 10.464,25.92 L10.464,25.92 L11.952,25.152 L11.952,22.32 L5.472,24.672 C4.512,25.024 3.728,25.568 3.12,26.304 C2.512,27.04 2.144,27.92 2.016,28.944 L2.016,28.944 L0,45.12 L7.584,45.12 Z M11.376,45.168 L19.392,43.68 C20.064,43.552 20.624,43.248 21.072,42.768 C21.52,42.288 21.792,41.696 21.888,40.992 L21.888,40.992 L24,24.576 L16.416,24.576 L14.304,41.328 C14.272,41.712 14.032,41.952 13.584,42.048 L13.584,42.048 L11.376,42.48 L11.376,45.168 Z M43.584,45.168 L45.024,42.48 L43.056,42.48 C42.864,42.48 42.696,42.408 42.552,42.264 C42.408,42.12 42.336,41.952 42.336,41.76 L42.336,41.76 L42.336,24.576 L34.752,24.576 L34.752,42.24 C34.752,43.072 35.032,43.768 35.592,44.328 C36.152,44.888 36.848,45.168 37.68,45.168 L37.68,45.168 L43.584,45.168 Z M32.88,44.4 L32.88,24.576 L25.296,24.576 L25.296,44.4 L32.88,44.4 Z M94.816,12.288 C95.648,12.288 96.344,12.008 96.904,11.448 C97.464,10.888 97.744,10.192 97.744,9.36 L97.744,9.36 L97.744,3.312 C97.744,2.48 97.464,1.784 96.904,1.224 C96.344,0.664 95.648,0.384 94.816,0.384 L94.816,0.384 L66.112,0.384 C65.28,0.384 64.584,0.664 64.024,1.224 C63.464,1.784 63.184,2.48 63.184,3.312 L63.184,3.312 L63.184,9.36 C63.184,10.192 63.464,10.888 64.024,11.448 C64.584,12.008 65.28,12.288 66.112,12.288 L66.112,12.288 L94.816,12.288 Z M89.968,4.992 L70.96,4.992 L70.96,3.792 C70.96,3.6 71.032,3.432 71.176,3.288 C71.32,3.144 71.488,3.072 71.68,3.072 L71.68,3.072 L89.248,3.072 C89.44,3.072 89.608,3.144 89.752,3.288 C89.896,3.432 89.968,3.6 89.968,3.792 L89.968,3.792 L89.968,4.992 Z M89.248,9.6 L71.68,9.6 C71.488,9.6 71.32,9.528 71.176,9.384 C71.032,9.24 70.96,9.072 70.96,8.88 L70.96,8.88 L70.96,7.728 L89.968,7.728 L89.968,8.88 C89.968,9.072 89.896,9.24 89.752,9.384 C89.608,9.528 89.44,9.6 89.248,9.6 L89.248,9.6 Z M102.064,17.184 L102.064,14.496 L58.912,14.496 L58.912,17.184 L102.064,17.184 Z M102.064,44.64 L102.064,41.952 L84.304,41.952 L84.304,39.072 L100.144,39.072 L100.144,36.384 L84.304,36.384 L84.304,33.456 L95.2,33.456 C96.032,33.456 96.728,33.176 97.288,32.616 C97.848,32.056 98.128,31.36 98.128,30.528 L98.128,30.528 L98.128,22.272 C98.128,21.44 97.848,20.744 97.288,20.184 C96.728,19.624 96.032,19.344 95.2,19.344 L95.2,19.344 L65.776,19.344 C64.944,19.344 64.248,19.624 63.688,20.184 C63.128,20.744 62.848,21.44 62.848,22.272 L62.848,22.272 L62.848,30.528 C62.848,31.36 63.128,32.056 63.688,32.616 C64.248,33.176 64.944,33.456 65.776,33.456 L65.776,33.456 L76.72,33.456 L76.72,36.384 L60.832,36.384 L60.832,39.072 L76.72,39.072 L76.72,41.952 L58.96,41.952 L58.96,44.64 L102.064,44.64 Z M76.72,25.056 L70.576,25.056 L70.576,22.752 C70.576,22.56 70.648,22.392 70.792,22.248 C70.936,22.104 71.104,22.032 71.296,22.032 L71.296,22.032 L76.72,22.032 L76.72,25.056 Z M90.4,25.056 L84.304,25.056 L84.304,22.032 L89.68,22.032 C89.872,22.032 90.04,22.104 90.184,22.248 C90.328,22.392 90.4,22.56 90.4,22.752 L90.4,22.752 L90.4,25.056 Z M76.72,30.768 L71.296,30.768 C71.104,30.768 70.936,30.696 70.792,30.552 C70.648,30.408 70.576,30.24 70.576,30.048 L70.576,30.048 L70.576,27.792 L76.72,27.792 L76.72,30.768 Z M89.68,30.768 L84.304,30.768 L84.304,27.792 L90.4,27.792 L90.4,30.048 C90.4,30.24 90.328,30.408 90.184,30.552 C90.04,30.696 89.872,30.768 89.68,30.768 L89.68,30.768 Z M124.4,16.224 L124.4,9.36 C124.4,9.072 124.504,8.824 124.712,8.616 C124.92,8.408 125.168,8.304 125.456,8.304 L125.456,8.304 L151.616,8.304 C151.904,8.304 152.152,8.408 152.36,8.616 C152.568,8.824 152.672,9.072 152.672,9.36 L152.672,9.36 L152.672,16.224 L160.256,16.224 L160.256,8.64 C160.256,7.808 159.968,7.104 159.392,6.528 C158.816,5.952 158.112,5.664 157.28,5.664 L157.28,5.664 L143.168,5.664 L141.872,0.144 L133.712,0.144 L135.008,5.664 L119.984,5.664 C119.088,5.664 118.328,5.976 117.704,6.6 C117.08,7.224 116.768,7.968 116.768,8.832 L116.768,8.832 L116.768,16.224 L124.4,16.224 Z M161.024,45.168 L161.024,42.48 L155.696,42.096 C155.44,42.096 155.216,42.064 155.024,42 C154.832,41.936 154.624,41.856 154.4,41.76 L154.4,41.76 L145.76,38.112 L153.344,34.992 C154.08,34.736 154.664,34.304 155.096,33.696 C155.528,33.088 155.744,32.384 155.744,31.584 L155.744,31.584 L155.744,24.384 L161.024,24.384 L161.024,21.696 L155.744,21.696 L155.744,17.76 L148.16,17.76 L148.16,21.696 L128.864,21.696 L128.864,17.76 L121.28,17.76 L121.28,21.696 L116,21.696 L116,24.384 L121.28,24.384 L121.28,31.584 C121.28,32.384 121.496,33.088 121.928,33.696 C122.36,34.304 122.944,34.736 123.68,34.992 L123.68,34.992 L131.264,38.112 L122.624,41.76 C122.4,41.856 122.192,41.936 122,42 C121.808,42.064 121.584,42.096 121.328,42.096 L121.328,42.096 L116,42.48 L116,45.168 L130.64,43.92 C131.088,43.856 131.528,43.784 131.96,43.704 C132.392,43.624 132.832,43.488 133.28,43.296 L133.28,43.296 L138.512,41.136 L143.744,43.296 C144.16,43.488 144.584,43.624 145.016,43.704 C145.448,43.784 145.888,43.856 146.336,43.92 L146.336,43.92 L161.024,45.168 Z M138.512,35.088 L129.776,31.44 C129.168,31.184 128.864,30.736 128.864,30.096 L128.864,30.096 L128.864,24.384 L148.16,24.384 L148.16,30.096 C148.16,30.736 147.856,31.184 147.248,31.44 L147.248,31.44 L138.512,35.088 Z M219.024,44.448 L219.024,41.76 L200.352,41.76 L200.352,31.584 L217.104,31.584 L217.104,28.896 L200.352,28.896 L200.352,18.72 L213.744,18.72 L213.744,16.32 L219.024,18.384 L219.024,15.504 L217.776,15.024 C217.328,14.8 217.056,14.496 216.96,14.112 L216.96,14.112 L213.504,3.216 C213.248,2.48 212.816,1.888 212.208,1.44 C211.6,0.992 210.88,0.768 210.048,0.768 L210.048,0.768 L183.168,0.768 C182.368,0.768 181.664,0.992 181.056,1.44 C180.448,1.888 180.016,2.48 179.76,3.216 L179.76,3.216 L176.304,14.016 C176.208,14.432 175.936,14.72 175.488,14.88 L175.488,14.88 L174,15.504 L174,18.384 L179.28,16.368 L179.28,18.72 L192.768,18.72 L192.768,28.896 L175.92,28.896 L175.92,31.584 L192.768,31.584 L192.768,41.76 L174,41.76 L174,44.448 L219.024,44.448 Z M212.976,16.032 L180.144,16.032 L181.92,15.36 C182.56,15.104 183.104,14.744 183.552,14.28 C184,13.816 184.32,13.264 184.512,12.624 L184.512,12.624 L187.344,4.272 C187.408,4.016 187.552,3.816 187.776,3.672 C188,3.528 188.24,3.456 188.496,3.456 L188.496,3.456 L204.72,3.456 C204.976,3.456 205.216,3.528 205.44,3.672 C205.664,3.816 205.808,4.016 205.872,4.272 L205.872,4.272 L208.752,12.672 C209.168,13.92 210,14.816 211.248,15.36 L211.248,15.36 L212.976,16.032 Z M277.024,25.872 L277.024,23.184 L273.376,22.032 C273.024,21.936 272.768,21.728 272.608,21.408 L272.608,21.408 L266.176,7.584 L276.784,7.584 L276.784,4.896 L252.976,4.896 L255.472,0.144 L247.888,0.144 L245.344,4.896 L232.24,4.896 L232.24,7.584 L243.904,7.584 L236.416,21.6 C236.288,21.856 236.048,22.048 235.696,22.176 L235.696,22.176 L232,23.184 L232,25.872 L242.128,23.184 C243.024,22.928 243.696,22.384 244.144,21.552 L244.144,21.552 L247.552,15.072 L252.448,25.392 L260.032,25.392 L254.752,14.256 L247.984,14.256 L251.536,7.584 L258.592,7.584 L265.024,21.36 C265.408,22.224 266.096,22.8 267.088,23.088 L267.088,23.088 L277.024,25.872 Z M264.4,40.8 L262.144,28.128 L254.56,28.128 L256.816,40.8 L264.4,40.8 Z M266.032,45.024 L267.472,42.336 L252.448,42.336 C252.256,42.336 252.088,42.264 251.944,42.12 C251.8,41.976 251.728,41.808 251.728,41.616 L251.728,41.616 L251.728,29.472 L244.144,29.472 L244.144,42.096 C244.144,42.928 244.424,43.624 244.984,44.184 C245.544,44.744 246.24,45.024 247.072,45.024 L247.072,45.024 L266.032,45.024 Z M239.392,45.168 L241.792,30.576 L234.208,30.576 L231.808,45.168 L239.392,45.168 Z M276.832,45.168 L274.432,30.576 L266.848,30.576 L269.248,45.168 L276.832,45.168 Z M290,45.12 L301.04,41.568 C302,41.216 302.736,40.64 303.248,39.84 L303.248,39.84 L308.24,30 L323.264,30 C323.616,30 323.904,30.128 324.128,30.384 C324.352,30.64 324.464,30.944 324.464,31.296 L324.464,31.296 L324.464,40.848 C324.464,41.2 324.352,41.488 324.128,41.712 C323.904,41.936 323.616,42.048 323.264,42.048 L323.264,42.048 L309.872,42.048 L311.312,44.736 L329.072,44.736 C329.904,44.736 330.6,44.456 331.16,43.896 C331.72,43.336 332,42.64 332,41.808 L332,41.808 L332,30.288 C332,29.456 331.72,28.752 331.16,28.176 C330.6,27.6 329.904,27.312 329.072,27.312 L329.072,27.312 L309.584,27.312 L311.216,24.144 L309.728,24.144 L315.344,22.032 C315.856,21.872 316.28,21.6 316.616,21.216 C316.952,20.832 317.184,20.416 317.312,19.968 L317.312,19.968 L317.936,16.896 L323.408,18.96 L323.408,15.744 L318.56,13.92 L320.144,6.288 L324.224,6.288 C324.704,6.288 324.944,6.544 324.944,7.056 L324.944,7.056 L324.32,21.312 C324.256,22.24 324.512,22.992 325.088,23.568 C325.664,24.144 326.4,24.432 327.296,24.432 L327.296,24.432 L333.584,24.432 L335.024,21.744 L332.624,21.744 C332.144,21.744 331.904,21.488 331.904,20.976 L331.904,20.976 L332.528,6.72 C332.592,5.792 332.336,5.04 331.76,4.464 C331.184,3.888 330.448,3.6 329.552,3.6 L329.552,3.6 L320.672,3.6 L321.392,0.144 L313.808,0.144 L313.184,3.6 L308.864,3.6 L308.864,6.288 L312.704,6.288 L311.744,11.328 L308.864,10.224 L308.864,13.488 L311.216,14.352 L310.064,20.544 C309.936,20.992 309.648,21.312 309.2,21.504 L309.2,21.504 L307.712,22.224 L307.712,24.144 L303.536,24.144 L301.904,27.312 L291.488,27.312 L291.488,30 L300.464,30 L295.088,40.368 C294.832,40.752 294.512,41.008 294.128,41.136 L294.128,41.136 L290,42.336 L290,45.12 Z M299.744,24.816 C300.576,24.816 301.272,24.536 301.832,23.976 C302.392,23.416 302.672,22.72 302.672,21.888 L302.672,21.888 L302.672,14.784 L307.52,13.92 L307.52,11.232 L302.672,12.096 L302.672,6.432 L307.52,6.432 L307.52,3.744 L302.672,3.744 L302.672,0.144 L295.088,0.144 L295.088,3.744 L290,3.744 L290,6.432 L295.088,6.432 L295.088,13.488 L290,14.4 L290,17.088 L295.088,16.176 L295.088,21.408 C295.088,21.6 295.016,21.768 294.872,21.912 C294.728,22.056 294.56,22.128 294.368,22.128 L294.368,22.128 L290,22.128 L291.392,24.816 L299.744,24.816 Z M393.024,45.168 L393.024,42.48 L389.328,41.856 C389.104,41.792 388.896,41.712 388.704,41.616 C388.512,41.52 388.368,41.376 388.272,41.184 L388.272,41.184 L375.504,15.648 L393.024,15.648 L393.024,12.96 L374.304,12.96 L374.304,0.144 L366.72,0.144 L366.72,12.96 L348,12.96 L348,15.648 L365.52,15.648 L352.752,41.184 C352.656,41.376 352.512,41.52 352.32,41.616 C352.128,41.712 351.92,41.792 351.696,41.856 L351.696,41.856 L348,42.48 L348,45.168 L357.744,43.536 C358.288,43.44 358.8,43.256 359.28,42.984 C359.76,42.712 360.128,42.336 360.384,41.856 L360.384,41.856 L370.512,21.744 L380.64,41.856 C380.896,42.336 381.264,42.712 381.744,42.984 C382.224,43.256 382.736,43.44 383.28,43.536 L383.28,43.536 L393.024,45.168 Z M406,45.168 L412.336,43.392 C413.552,43.04 414.52,42.392 415.24,41.448 C415.96,40.504 416.32,39.408 416.32,38.16 L416.32,38.16 L416.32,12.624 L447.184,12.624 C448.016,12.624 448.712,12.344 449.272,11.784 C449.832,11.224 450.112,10.528 450.112,9.696 L450.112,9.696 L450.112,4.032 C450.112,3.2 449.832,2.504 449.272,1.944 C448.712,1.384 448.016,1.104 447.184,1.104 L447.184,1.104 L411.664,1.104 C410.832,1.104 410.136,1.384 409.576,1.944 C409.016,2.504 408.736,3.2 408.736,4.032 L408.736,4.032 L408.736,39.648 C408.736,40.288 408.56,40.848 408.208,41.328 C407.856,41.808 407.376,42.128 406.768,42.288 L406.768,42.288 L406,42.48 L406,45.168 Z M441.808,9.936 L416.32,9.936 L416.32,4.512 C416.32,4.32 416.392,4.152 416.536,4.008 C416.68,3.864 416.848,3.792 417.04,3.792 L417.04,3.792 L441.808,3.792 C442,3.792 442.168,3.864 442.312,4.008 C442.456,4.152 442.528,4.32 442.528,4.512 L442.528,4.512 L442.528,9.216 C442.528,9.408 442.456,9.576 442.312,9.72 C442.168,9.864 442,9.936 441.808,9.936 L441.808,9.936 Z M446.32,45.168 L446.32,33.648 L451.024,33.648 L451.024,30.96 L446.32,30.96 L446.32,21.888 L450.448,21.888 L450.448,19.2 L445.36,19.2 L447.76,14.64 L440.176,14.64 L437.776,19.2 L431.44,19.2 L429.04,14.64 L421.456,14.64 L423.856,19.2 L418.912,19.2 L418.912,21.888 L423.04,21.888 L423.04,30.96 L418.336,30.96 L418.336,33.648 L423.04,33.648 L423.04,40.08 C423.04,40.72 422.72,41.152 422.08,41.376 L422.08,41.376 L418.336,42.48 L418.336,45.168 L427.216,42.864 C428.24,42.608 429.064,42.08 429.688,41.28 C430.312,40.48 430.624,39.552 430.624,38.496 L430.624,38.496 L430.624,33.648 L438.736,33.648 L438.736,45.168 L446.32,45.168 Z M438.736,30.96 L430.624,30.96 L430.624,21.888 L438.736,21.888 L438.736,30.96 Z" id="path-2"></path>
    </defs>
    <g id="2022.4.7" stroke="none" stroke-width="1" fill="none" fill-rule="evenodd">
        <g id="矩形备份-8" transform="translate(0.488000, 0.944000)" fill-rule="nonzero">
            <g id="流量安全态势大屏">
                <use fill-opacity="0" fill="#FFFFFF" xlink:href="#path-2"></use>
                <use fill="url(#linearGradient-1)" xlink:href="#path-2"></use>
            </g>
        </g>
    </g>
</svg>