<?xml version="1.0" encoding="UTF-8"?>
<svg width="1920px" height="166px" viewBox="0 0 1920 166" version="1.1" xmlns="http://www.w3.org/2000/svg" xmlns:xlink="http://www.w3.org/1999/xlink">
    <title>编组 8</title>
    <defs>
        <linearGradient x1="100%" y1="95.5032841%" x2="3.69862151%" y2="4.49671586%" id="linearGradient-1">
            <stop stop-color="#3E8AF7" offset="0%"></stop>
            <stop stop-color="#05DBFF" offset="53.247784%"></stop>
            <stop stop-color="#1D52ED" offset="100%"></stop>
            <stop stop-color="#1D52ED" offset="100%"></stop>
        </linearGradient>
        <linearGradient x1="94.9778701%" y1="56.4045767%" x2="0%" y2="43.5954233%" id="linearGradient-2">
            <stop stop-color="#3E8AF7" offset="0%"></stop>
            <stop stop-color="#04DAFF" offset="46.1224323%"></stop>
            <stop stop-color="#1D52ED" offset="100%"></stop>
        </linearGradient>
        <linearGradient x1="2.36592021%" y1="31.7491319%" x2="100%" y2="68.2508681%" id="linearGradient-3">
            <stop stop-color="#0278FC" offset="0%"></stop>
            <stop stop-color="#06E9FF" offset="47.0611704%"></stop>
            <stop stop-color="#00B2FF" offset="100%"></stop>
        </linearGradient>
        <linearGradient x1="96.5519685%" y1="53.8398673%" x2="52.4301102%" y2="44.0122909%" id="linearGradient-4">
            <stop stop-color="#3E8AF7" offset="0%"></stop>
            <stop stop-color="#1D52ED" offset="100%"></stop>
        </linearGradient>
        <linearGradient x1="0%" y1="50%" x2="100%" y2="50%" id="linearGradient-5">
            <stop stop-color="#00D1FF" offset="0%"></stop>
            <stop stop-color="#2868E7" offset="100%"></stop>
        </linearGradient>
        <linearGradient x1="100%" y1="50%" x2="0%" y2="50%" id="linearGradient-6">
            <stop stop-color="#01BAFA" offset="0%"></stop>
            <stop stop-color="#87E8FF" offset="50.2940785%"></stop>
            <stop stop-color="#01BAFA" offset="100%"></stop>
        </linearGradient>
        <filter x="-6.6%" y="-133.2%" width="113.3%" height="366.4%" filterUnits="objectBoundingBox" id="filter-7">
            <feGaussianBlur stdDeviation="20" in="SourceGraphic"></feGaussianBlur>
        </filter>
        <linearGradient x1="100%" y1="50%" x2="0%" y2="50%" id="linearGradient-8">
            <stop stop-color="#01BAFA" offset="0%"></stop>
            <stop stop-color="#87E8FF" offset="50.2940785%"></stop>
            <stop stop-color="#01BAFA" offset="100%"></stop>
        </linearGradient>
        <filter x="-4.4%" y="-100.0%" width="108.8%" height="300.0%" filterUnits="objectBoundingBox" id="filter-9">
            <feGaussianBlur stdDeviation="3" in="SourceGraphic"></feGaussianBlur>
        </filter>
    </defs>
    <g id="2022.4.6" stroke="none" stroke-width="1" fill="none" fill-rule="evenodd">
        <g id="画板" transform="translate(-34.000000, -928.000000)">
            <g id="编组-8" transform="translate(34.000000, 964.000000)">
                <g id="编组-7" transform="translate(0.000000, 2.043071)">
                    <g id="编组-6">
                        <polyline id="路径-2" stroke="#1D52ED" points="0 3 448.470313 3 469.850008 22.4166265 553.44883 22.4166265 597.585815 62.3669428 996.869723 62.3669428"></polyline>
                        <line x1="474.44883" y1="26.4166265" x2="512.133642" y2="62.3669428" id="路径-2备份" stroke="url(#linearGradient-1)"></line>
                        <polyline id="路径-2备份-2" stroke="url(#linearGradient-2)" points="489.44883 26.4166265 528.618219 62.8669102 591.294062 62.8669102"></polyline>
                        <polygon id="矩形" fill="url(#linearGradient-3)" points="506 27.9569291 522 27.9569291 554 56.9569291 538 56.9569291"></polygon>
                        <polygon id="矩形备份" fill="url(#linearGradient-3)" points="531 27.9569291 547 27.9569291 579 56.9569291 563 56.9569291"></polygon>
                        <polyline id="路径-3" stroke="url(#linearGradient-4)" points="456.688643 10.632285 563.038325 10.632285 618.545872 62.3669428"></polyline>
                        <rect id="矩形" fill="url(#linearGradient-5)" x="162" y="0" width="140" height="6" rx="3"></rect>
                    </g>
                    <g id="编组-6备份" transform="translate(1421.434861, 31.225142) scale(-1, 1) translate(-1421.434861, -31.225142) translate(923.000000, 0.000000)">
                        <polyline id="路径-2" stroke="#1D52ED" points="0 3 448.470313 3 469.850008 22.4166265 553.44883 22.4166265 597.585815 62.3669428 996.869723 62.3669428"></polyline>
                        <line x1="474.44883" y1="26.4166265" x2="512.133642" y2="62.3669428" id="路径-2备份" stroke="url(#linearGradient-1)"></line>
                        <polyline id="路径-2备份-2" stroke="url(#linearGradient-2)" points="489 26 528.169389 62.4502837 590.845231 62.4502837"></polyline>
                        <polygon id="矩形" fill="url(#linearGradient-3)" points="506 27.9569291 522 27.9569291 554 56.9569291 538 56.9569291"></polygon>
                        <polygon id="矩形备份" fill="url(#linearGradient-3)" points="531 27.9569291 547 27.9569291 579 56.9569291 563 56.9569291"></polygon>
                        <polyline id="路径-3" stroke="url(#linearGradient-4)" points="456.688643 10.632285 563.038325 10.632285 618.545872 62.3669428"></polyline>
                        <rect id="矩形" fill="url(#linearGradient-5)" x="162" y="0" width="140" height="6" rx="3"></rect>
                    </g>
                    <path d="M963.441818,67.0450428 C1034.13898,67.0450428 1109.9536,56.2144885 1166.71864,52.499012 C1279.09532,45.1435532 1412,40.9032541 1412,40.9032541 C1412,40.9032541 1276.98979,33.4827128 1166.71864,26.1317157 C1109.11643,22.2917838 1036.28183,22.0019719 964,22.0019719 C902.182774,22.0019719 795.082131,21.8241757 743.441818,24.8451395 C619.107069,32.1187356 509,40.9032541 509,40.9032541 C509,40.9032541 617.110861,43.7999938 743.441818,51.0416968 C794.168533,53.9495178 903.089527,67.0450428 963.441818,67.0450428 Z" id="椭圆形" fill="url(#linearGradient-6)" opacity="0.5" filter="url(#filter-7)" transform="translate(960.500000, 44.522521) scale(1, -1) translate(-960.500000, -44.522521) "></path>
                    <path d="M960.5,67 C979.498405,67 997.879207,65.0584027 1013.13364,64.384917 C1043.33255,63.0516301 1063,62.5 1063,62.5 C1063,62.5 1042.76674,61.7845696 1013.13364,60.4520914 C997.654234,59.7560463 979.924252,58 960.5,58 C943.887895,58 929.018507,59.9044965 915.141238,60.4520914 C881.728838,61.7705395 858,62.5 858,62.5 C858,62.5 881.192398,63.07225 915.141238,64.384917 C928.772997,64.9120031 944.281566,67 960.5,67 Z" id="椭圆形备份-2" fill="url(#linearGradient-8)" opacity="0.861463274" filter="url(#filter-9)"></path>
                </g>
            </g>
        </g>
    </g>
</svg>